<svg width="20" height="14" viewBox="0 0 20 14" fill="none" xmlns="http://www.w3.org/2000/svg">
<g clip-path="url(#clip0_87_509)">
<path fill-rule="evenodd" clip-rule="evenodd" d="M0 0H28.5V1.07917H0V0ZM0 2.15542H28.5V3.23458H0V2.15542ZM0 4.30792H28.5V5.38708H0V4.30792ZM0 6.46042H28.5V7.53958H0V6.46042ZM0 8.61875H28.5V9.69208H0V8.61875ZM0 10.7683H28.5V11.8475H0V10.7683ZM0 12.9208H28.5V14H0V12.9208Z" fill="#BD3D44"/>
<path fill-rule="evenodd" clip-rule="evenodd" d="M0 1.07916H28.5V2.15541H0V1.07916ZM0 3.23166H28.5V4.30791H0V3.23166ZM0 5.38416H28.5V6.46333H0V5.38416ZM0 7.53958H28.5V8.61875H0V7.53958ZM0 9.69208H28.5V10.7712H0V9.69208ZM0 11.8446H28.5V12.9237H0V11.8446Z" fill="white"/>
<path fill-rule="evenodd" clip-rule="evenodd" d="M0 0H11.4V7.53958H0V0Z" fill="#192F5D"/>
<path fill-rule="evenodd" clip-rule="evenodd" d="M0.949902 0.320831L1.05615 0.621248H1.3874L1.11865 0.804998L1.22178 1.10541L0.949902 0.918748L0.681152 1.1025L0.781152 0.804998L0.509277 0.621248H0.849902L0.949902 0.320831ZM2.8499 0.320831L2.95303 0.621248H3.29053L3.01865 0.804998L3.11865 1.10541L2.8499 0.918748L2.57803 1.1025L2.68115 0.804998L2.4124 0.621248H2.74365L2.8499 0.320831ZM4.7499 0.320831L4.85303 0.621248H5.1874L4.91865 0.804998L5.02178 1.10541L4.7499 0.918748L4.47803 1.1025L4.58115 0.804998L4.30928 0.621248H4.64678L4.7499 0.320831ZM6.6499 0.320831L6.75303 0.621248H7.09053L6.81865 0.804998L6.92178 1.10541L6.6499 0.918748L6.37803 1.1025L6.48428 0.804998L6.20928 0.621248H6.54365L6.6499 0.320831ZM8.5499 0.320831L8.65303 0.621248H8.9874L8.71865 0.804998L8.82178 1.10541L8.5499 0.918748L8.27803 1.1025L8.38115 0.804998L8.1124 0.621248H8.44678L8.5499 0.320831ZM10.4499 0.320831L10.553 0.621248H10.8905L10.6155 0.804998L10.7218 1.10541L10.4499 0.918748L10.178 1.1025L10.2843 0.804998L10.0093 0.621248H10.3468L10.4499 0.320831ZM1.8999 1.07916L2.00303 1.37666H2.34365L2.07178 1.5575L2.17178 1.85791L1.90615 1.67416L1.63428 1.85791L1.73115 1.5575L1.46865 1.37666H1.80303L1.8999 1.07916ZM3.7999 1.07916L3.90615 1.37666H4.24053L3.96553 1.5575L4.07178 1.85791L3.7999 1.67416L3.52803 1.85791L3.63115 1.5575L3.35928 1.37666H3.69678L3.7999 1.07916ZM5.6999 1.07916L5.80303 1.37666H6.14053L5.86865 1.5575L5.97178 1.85791L5.6999 1.67416L5.42803 1.85791L5.53115 1.5575L5.2624 1.37666H5.59365L5.6999 1.07916ZM7.5999 1.07916L7.70615 1.37666H8.04053L7.76553 1.5575L7.87178 1.85791L7.5999 1.67416L7.33115 1.85791L7.43115 1.5575L7.15928 1.37666H7.4999L7.5999 1.07916ZM9.4999 1.07916L9.60303 1.37666H9.94053L9.66865 1.5575L9.77178 1.85791L9.4999 1.67416L9.22803 1.85791L9.33115 1.5575L9.0624 1.37666H9.39678L9.4999 1.07916ZM0.949902 1.82583L1.05615 2.12916H1.3874L1.11865 2.31291L1.22178 2.61041L0.949902 2.42666L0.681152 2.61041L0.781152 2.31291L0.509277 2.12916H0.849902L0.949902 1.82583ZM2.8499 1.82583L2.95303 2.12916H3.29053L3.01865 2.31291L3.11865 2.61041L2.8499 2.42666L2.57803 2.61041L2.68115 2.31L2.4124 2.12625H2.74365L2.8499 1.82583ZM4.7499 1.82583L4.85303 2.12625H5.1874L4.91865 2.31L5.02178 2.6075L4.7499 2.42375L4.47803 2.6075L4.58115 2.30708L4.30928 2.12333H4.64678L4.7499 1.82583ZM6.6499 1.82583L6.75303 2.12625H7.09053L6.81865 2.31L6.92178 2.6075L6.6499 2.42375L6.37803 2.6075L6.48428 2.30708L6.20928 2.12333H6.54365L6.6499 1.82583ZM8.5499 1.82583L8.65303 2.12625H8.9874L8.71865 2.31L8.82178 2.6075L8.5499 2.42375L8.27803 2.6075L8.38115 2.30708L8.1124 2.12333H8.44678L8.5499 1.82583ZM10.4499 1.82583L10.553 2.12625H10.8905L10.6155 2.31L10.7218 2.6075L10.4499 2.42375L10.178 2.6075L10.2843 2.30708L10.0093 2.12333H10.3468L10.4499 1.82583ZM1.8999 2.58416L2.00303 2.88166H2.34365L2.07178 3.06541L2.1749 3.36583L1.90303 3.17916L1.63115 3.36291L1.73428 3.06541L1.46553 2.88166H1.7999L1.8999 2.58416ZM3.7999 2.58416L3.90615 2.88166H4.24053L3.96553 3.06541L4.07178 3.36583L3.7999 3.17916L3.52803 3.36291L3.63115 3.06541L3.35928 2.88166H3.69678L3.7999 2.58416ZM5.6999 2.58416L5.80303 2.88166H6.14053L5.86865 3.06541L5.97178 3.36583L5.6999 3.17916L5.42803 3.36291L5.53115 3.06541L5.2624 2.88166H5.59365L5.6999 2.58416ZM7.5999 2.58416L7.70615 2.88166H8.04053L7.76865 3.06541L7.87178 3.36583L7.5999 3.17916L7.33115 3.36291L7.43115 3.06541L7.15928 2.88166H7.4999L7.5999 2.58416ZM9.4999 2.58416L9.60303 2.88166H9.94053L9.66865 3.06541L9.77178 3.36583L9.4999 3.17916L9.22803 3.36291L9.33115 3.06541L9.0624 2.88166H9.39678L9.4999 2.58416ZM0.949902 3.33958L1.05615 3.63708H1.3874L1.11865 3.82083L1.22178 4.12125L0.949902 3.93458L0.681152 4.11833L0.781152 3.82083L0.509277 3.63708H0.849902L0.949902 3.33958ZM2.8499 3.33958L2.95303 3.63708H3.29053L3.01865 3.82083L3.11865 4.11833L2.8499 3.93458L2.57803 4.11833L2.68115 3.82083L2.4124 3.63708H2.74365L2.8499 3.33958ZM4.7499 3.33958L4.85303 3.63708H5.1874L4.91865 3.82083L5.02178 4.12125L4.7499 3.93458L4.47803 4.11833L4.58115 3.82083L4.30928 3.63708H4.64678L4.7499 3.33958ZM6.6499 3.33958L6.75303 3.63708H7.09053L6.81865 3.82083L6.92178 4.12125L6.6499 3.93458L6.37803 4.11833L6.48428 3.82083L6.20928 3.63708H6.54365L6.6499 3.33958ZM8.5499 3.33958L8.65303 3.63708H8.9874L8.71865 3.82083L8.82178 4.12125L8.5499 3.93458L8.27803 4.11833L8.38115 3.82083L8.1124 3.63708H8.44678L8.5499 3.33958ZM10.4499 3.33958L10.553 3.63708H10.8905L10.6155 3.82083L10.7218 4.12125L10.4499 3.93458L10.178 4.11833L10.2812 3.82083L10.0062 3.63708H10.3437L10.4499 3.33958ZM1.8999 4.09208L2.00303 4.3925H2.34365L2.07178 4.57333L2.1749 4.87375L1.90303 4.68708L1.63115 4.87375L1.73428 4.57333L1.46553 4.38958H1.7999L1.8999 4.09208ZM3.7999 4.09208L3.90615 4.3925H4.24053L3.96553 4.57333L4.07178 4.87375L3.7999 4.68708L3.52803 4.87375L3.63115 4.57333L3.35928 4.38958H3.69678L3.7999 4.09208ZM5.6999 4.09208L5.80303 4.3925H6.14053L5.86865 4.57333L5.97178 4.87375L5.6999 4.68708L5.42803 4.87375L5.53115 4.57333L5.2624 4.38958H5.59365L5.6999 4.09208ZM7.5999 4.09208L7.70615 4.3925H8.04053L7.76865 4.57333L7.87178 4.87375L7.5999 4.68708L7.33115 4.87375L7.43115 4.57333L7.15928 4.38958H7.4999L7.5999 4.09208ZM9.4999 4.09208L9.60303 4.3925H9.94053L9.66865 4.57333L9.77178 4.87375L9.4999 4.68708L9.22803 4.87375L9.33115 4.57333L9.0624 4.38958H9.39678L9.4999 4.09208ZM0.949902 4.84458L1.05615 5.145H1.3874L1.11865 5.32875L1.22178 5.62333L0.949902 5.4425L0.681152 5.62333L0.781152 5.32583L0.509277 5.14208H0.849902L0.949902 4.84458ZM2.8499 4.84458L2.95303 5.145H3.29053L3.01865 5.32875L3.12178 5.62333L2.8499 5.4425L2.57803 5.62333L2.68428 5.32583L2.4124 5.14208H2.74365L2.8499 4.84458ZM4.7499 4.84458L4.85303 5.145H5.1874L4.91865 5.32875L5.02178 5.62333L4.7499 5.4425L4.47803 5.62333L4.58115 5.32583L4.30928 5.14208H4.64678L4.7499 4.84458ZM6.6499 4.84458L6.75303 5.145H7.09053L6.81865 5.32875L6.92178 5.62333L6.6499 5.4425L6.37803 5.62333L6.48428 5.32583L6.20928 5.14208H6.54365L6.6499 4.84458ZM8.5499 4.84458L8.65303 5.145H8.9874L8.71865 5.32875L8.82178 5.62333L8.5499 5.4425L8.27803 5.62333L8.38115 5.32583L8.1124 5.14208H8.44678L8.5499 4.84458ZM10.4499 4.84458L10.553 5.145H10.8905L10.6155 5.32875L10.7218 5.62333L10.4499 5.4425L10.178 5.62333L10.2843 5.32583L10.0093 5.14208H10.3468L10.4499 4.84458ZM1.8999 5.6L2.00303 5.8975H2.34365L2.07178 6.08125L2.1749 6.38166L1.90303 6.195L1.63115 6.37875L1.73428 6.08125L1.46553 5.8975H1.7999L1.8999 5.6ZM3.7999 5.6L3.90615 5.8975H4.24053L3.96553 6.08125L4.07178 6.38166L3.7999 6.195L3.52803 6.37875L3.63115 6.08125L3.35928 5.8975H3.69678L3.7999 5.6ZM5.6999 5.6L5.80303 5.8975H6.14053L5.86865 6.08125L5.97178 6.38166L5.6999 6.195L5.42803 6.37875L5.53115 6.08125L5.2624 5.8975H5.59365L5.6999 5.6ZM7.5999 5.6L7.70615 5.8975H8.04053L7.76865 6.08125L7.87178 6.38166L7.5999 6.195L7.33115 6.37875L7.43115 6.08125L7.15928 5.8975H7.4999L7.5999 5.6ZM9.4999 5.6L9.60303 5.8975H9.94053L9.66865 6.08125L9.77178 6.38166L9.4999 6.195L9.22803 6.37875L9.33115 6.08125L9.0624 5.8975H9.39678L9.4999 5.6ZM0.949902 6.35541L1.05615 6.65292H1.3874L1.11865 6.83666L1.22178 7.13416L0.949902 6.95041L0.681152 7.13416L0.781152 6.83375L0.509277 6.65H0.849902L0.949902 6.35541ZM2.8499 6.35541L2.95303 6.65292H3.29053L3.01865 6.83666L3.12178 7.13416L2.8499 6.95041L2.57803 7.13416L2.68428 6.83375L2.4124 6.65H2.74365L2.8499 6.35541ZM4.7499 6.35541L4.85303 6.65292H5.1874L4.9249 6.83666L5.02803 7.13416L4.75615 6.95041L4.48428 7.13416L4.5874 6.83375L4.31553 6.65H4.65303L4.7499 6.35541ZM6.6499 6.35541L6.75303 6.65292H7.09053L6.81865 6.83666L6.92178 7.13416L6.6499 6.95041L6.37803 7.13416L6.48428 6.83375L6.20928 6.65H6.54365L6.6499 6.35541ZM8.5499 6.35541L8.65303 6.65292H8.9874L8.71865 6.83666L8.82178 7.13416L8.5499 6.95041L8.27803 7.13416L8.38115 6.83375L8.1124 6.65H8.44678L8.5499 6.35541ZM10.4499 6.35541L10.553 6.65292H10.8905L10.6155 6.83666L10.7218 7.13416L10.4499 6.95041L10.178 7.13416L10.2843 6.83375L10.0093 6.65H10.3468L10.4499 6.35541Z" fill="white"/>
</g>
<defs>
<clipPath id="clip0_87_509">
<rect width="20" height="14" fill="white"/>
</clipPath>
</defs>
</svg>
